<mxfile host="app.diagrams.net" modified="2023-05-16T22:45:45.147Z" agent="Mozilla/5.0 (Macintosh; Intel Mac OS X 10_15_7) AppleWebKit/605.1.15 (KHTML, like Gecko) Version/16.4 Safari/605.1.15" etag="GpNDO1Ipd778wr23ZOzG" version="21.3.2" type="github">
  <diagram name="Tree" id="KBvRU3A3p2nGMIXXvxWt">
    <mxGraphModel dx="1026" dy="720" grid="1" gridSize="10" guides="1" tooltips="1" connect="1" arrows="1" fold="1" page="1" pageScale="1" pageWidth="2500" pageHeight="1500" math="0" shadow="0">
      <root>
        <mxCell id="0" />
        <mxCell id="1" parent="0" />
        <mxCell id="UrL7DcTW2N4OfELLKphQ-14" value="" style="edgeStyle=orthogonalEdgeStyle;orthogonalLoop=1;jettySize=auto;html=1;" edge="1" parent="1" source="UrL7DcTW2N4OfELLKphQ-9" target="UrL7DcTW2N4OfELLKphQ-13">
          <mxGeometry relative="1" as="geometry" />
        </mxCell>
        <mxCell id="UrL7DcTW2N4OfELLKphQ-9" value="ALGOL" style="rounded=0;whiteSpace=wrap;html=1;labelBackgroundColor=none;" vertex="1" parent="1">
          <mxGeometry x="120" y="880" width="80" height="30" as="geometry" />
        </mxCell>
        <mxCell id="UrL7DcTW2N4OfELLKphQ-17" value="" style="edgeStyle=orthogonalEdgeStyle;orthogonalLoop=1;jettySize=auto;html=1;entryX=0;entryY=0.5;entryDx=0;entryDy=0;" edge="1" parent="1" source="UrL7DcTW2N4OfELLKphQ-13" target="UrL7DcTW2N4OfELLKphQ-15">
          <mxGeometry relative="1" as="geometry" />
        </mxCell>
        <mxCell id="UrL7DcTW2N4OfELLKphQ-19" style="edgeStyle=orthogonalEdgeStyle;orthogonalLoop=1;jettySize=auto;html=1;exitX=1;exitY=0.5;exitDx=0;exitDy=0;entryX=0;entryY=0.5;entryDx=0;entryDy=0;" edge="1" parent="1" source="UrL7DcTW2N4OfELLKphQ-13" target="UrL7DcTW2N4OfELLKphQ-18">
          <mxGeometry relative="1" as="geometry" />
        </mxCell>
        <mxCell id="UrL7DcTW2N4OfELLKphQ-21" style="edgeStyle=orthogonalEdgeStyle;orthogonalLoop=1;jettySize=auto;html=1;exitX=1;exitY=0.5;exitDx=0;exitDy=0;entryX=0;entryY=0.5;entryDx=0;entryDy=0;" edge="1" parent="1" source="UrL7DcTW2N4OfELLKphQ-13" target="UrL7DcTW2N4OfELLKphQ-20">
          <mxGeometry relative="1" as="geometry" />
        </mxCell>
        <mxCell id="UrL7DcTW2N4OfELLKphQ-23" style="edgeStyle=orthogonalEdgeStyle;orthogonalLoop=1;jettySize=auto;html=1;exitX=1;exitY=0.5;exitDx=0;exitDy=0;entryX=0;entryY=0.5;entryDx=0;entryDy=0;" edge="1" parent="1" source="UrL7DcTW2N4OfELLKphQ-13" target="UrL7DcTW2N4OfELLKphQ-22">
          <mxGeometry relative="1" as="geometry" />
        </mxCell>
        <mxCell id="UrL7DcTW2N4OfELLKphQ-100" style="edgeStyle=orthogonalEdgeStyle;orthogonalLoop=1;jettySize=auto;html=1;exitX=1;exitY=0.5;exitDx=0;exitDy=0;entryX=0;entryY=0.5;entryDx=0;entryDy=0;fontFamily=Helvetica;fontSize=12;fontColor=default;dashed=1;endArrow=classic;endFill=1;" edge="1" parent="1" source="UrL7DcTW2N4OfELLKphQ-13" target="UrL7DcTW2N4OfELLKphQ-40">
          <mxGeometry relative="1" as="geometry" />
        </mxCell>
        <mxCell id="UrL7DcTW2N4OfELLKphQ-148" style="edgeStyle=orthogonalEdgeStyle;orthogonalLoop=1;jettySize=auto;html=1;exitX=1;exitY=0.5;exitDx=0;exitDy=0;entryX=0;entryY=0.5;entryDx=0;entryDy=0;fontFamily=Helvetica;fontSize=12;fontColor=default;" edge="1" parent="1" source="UrL7DcTW2N4OfELLKphQ-13" target="UrL7DcTW2N4OfELLKphQ-145">
          <mxGeometry relative="1" as="geometry" />
        </mxCell>
        <mxCell id="UrL7DcTW2N4OfELLKphQ-150" style="edgeStyle=orthogonalEdgeStyle;orthogonalLoop=1;jettySize=auto;html=1;exitX=1;exitY=0.5;exitDx=0;exitDy=0;entryX=0;entryY=0.5;entryDx=0;entryDy=0;fontFamily=Helvetica;fontSize=12;fontColor=default;" edge="1" parent="1" source="UrL7DcTW2N4OfELLKphQ-13" target="UrL7DcTW2N4OfELLKphQ-144">
          <mxGeometry relative="1" as="geometry" />
        </mxCell>
        <mxCell id="UrL7DcTW2N4OfELLKphQ-151" style="edgeStyle=orthogonalEdgeStyle;orthogonalLoop=1;jettySize=auto;html=1;exitX=1;exitY=0.5;exitDx=0;exitDy=0;entryX=0;entryY=0.5;entryDx=0;entryDy=0;fontFamily=Helvetica;fontSize=12;fontColor=default;" edge="1" parent="1" source="UrL7DcTW2N4OfELLKphQ-13" target="UrL7DcTW2N4OfELLKphQ-149">
          <mxGeometry relative="1" as="geometry" />
        </mxCell>
        <mxCell id="UrL7DcTW2N4OfELLKphQ-13" value="ALGOL 60" style="rounded=0;whiteSpace=wrap;html=1;labelBackgroundColor=none;" vertex="1" parent="1">
          <mxGeometry x="280" y="880" width="80" height="30" as="geometry" />
        </mxCell>
        <mxCell id="UrL7DcTW2N4OfELLKphQ-15" value="ALGOL N" style="rounded=0;whiteSpace=wrap;html=1;labelBackgroundColor=none;" vertex="1" parent="1">
          <mxGeometry x="440" y="680" width="80" height="30" as="geometry" />
        </mxCell>
        <mxCell id="UrL7DcTW2N4OfELLKphQ-18" value="ALGOL X" style="rounded=0;whiteSpace=wrap;html=1;" vertex="1" parent="1">
          <mxGeometry x="440" y="720" width="80" height="30" as="geometry" />
        </mxCell>
        <mxCell id="UrL7DcTW2N4OfELLKphQ-20" value="ALGOL Y" style="rounded=0;whiteSpace=wrap;html=1;" vertex="1" parent="1">
          <mxGeometry x="440" y="760" width="80" height="30" as="geometry" />
        </mxCell>
        <mxCell id="UrL7DcTW2N4OfELLKphQ-25" style="edgeStyle=orthogonalEdgeStyle;orthogonalLoop=1;jettySize=auto;html=1;exitX=1;exitY=0.5;exitDx=0;exitDy=0;entryX=0;entryY=0.5;entryDx=0;entryDy=0;fontFamily=Helvetica;fontSize=12;fontColor=default;" edge="1" parent="1" source="UrL7DcTW2N4OfELLKphQ-22" target="UrL7DcTW2N4OfELLKphQ-24">
          <mxGeometry relative="1" as="geometry" />
        </mxCell>
        <mxCell id="UrL7DcTW2N4OfELLKphQ-22" value="ALGOL W" style="rounded=0;whiteSpace=wrap;html=1;" vertex="1" parent="1">
          <mxGeometry x="440" y="880" width="80" height="30" as="geometry" />
        </mxCell>
        <mxCell id="UrL7DcTW2N4OfELLKphQ-27" style="edgeStyle=orthogonalEdgeStyle;orthogonalLoop=1;jettySize=auto;html=1;exitX=1;exitY=0.5;exitDx=0;exitDy=0;entryX=0;entryY=0.5;entryDx=0;entryDy=0;fontFamily=Helvetica;fontSize=12;fontColor=default;" edge="1" parent="1" source="UrL7DcTW2N4OfELLKphQ-24" target="UrL7DcTW2N4OfELLKphQ-26">
          <mxGeometry relative="1" as="geometry" />
        </mxCell>
        <mxCell id="UrL7DcTW2N4OfELLKphQ-80" style="edgeStyle=orthogonalEdgeStyle;orthogonalLoop=1;jettySize=auto;html=1;exitX=1;exitY=0.5;exitDx=0;exitDy=0;entryX=0;entryY=0.5;entryDx=0;entryDy=0;fontFamily=Helvetica;fontSize=12;fontColor=default;" edge="1" parent="1" source="UrL7DcTW2N4OfELLKphQ-24" target="UrL7DcTW2N4OfELLKphQ-79">
          <mxGeometry relative="1" as="geometry" />
        </mxCell>
        <mxCell id="UrL7DcTW2N4OfELLKphQ-119" style="edgeStyle=orthogonalEdgeStyle;orthogonalLoop=1;jettySize=auto;html=1;exitX=1;exitY=0.5;exitDx=0;exitDy=0;entryX=0;entryY=0.5;entryDx=0;entryDy=0;fontFamily=Helvetica;fontSize=12;fontColor=default;" edge="1" parent="1" source="UrL7DcTW2N4OfELLKphQ-24" target="UrL7DcTW2N4OfELLKphQ-118">
          <mxGeometry relative="1" as="geometry" />
        </mxCell>
        <mxCell id="UrL7DcTW2N4OfELLKphQ-139" style="edgeStyle=orthogonalEdgeStyle;orthogonalLoop=1;jettySize=auto;html=1;exitX=1;exitY=0.5;exitDx=0;exitDy=0;entryX=0;entryY=0.5;entryDx=0;entryDy=0;fontFamily=Helvetica;fontSize=12;fontColor=default;" edge="1" parent="1" source="UrL7DcTW2N4OfELLKphQ-24" target="UrL7DcTW2N4OfELLKphQ-138">
          <mxGeometry relative="1" as="geometry" />
        </mxCell>
        <mxCell id="UrL7DcTW2N4OfELLKphQ-24" value="Pascal" style="rounded=0;whiteSpace=wrap;html=1;" vertex="1" parent="1">
          <mxGeometry x="600" y="880" width="80" height="30" as="geometry" />
        </mxCell>
        <mxCell id="UrL7DcTW2N4OfELLKphQ-30" style="edgeStyle=orthogonalEdgeStyle;orthogonalLoop=1;jettySize=auto;html=1;exitX=1;exitY=0.5;exitDx=0;exitDy=0;entryX=0;entryY=0.5;entryDx=0;entryDy=0;fontFamily=Helvetica;fontSize=12;fontColor=default;" edge="1" parent="1" source="UrL7DcTW2N4OfELLKphQ-26" target="UrL7DcTW2N4OfELLKphQ-29">
          <mxGeometry relative="1" as="geometry" />
        </mxCell>
        <mxCell id="UrL7DcTW2N4OfELLKphQ-31" style="edgeStyle=orthogonalEdgeStyle;orthogonalLoop=1;jettySize=auto;html=1;exitX=1;exitY=0.5;exitDx=0;exitDy=0;entryX=0;entryY=0.5;entryDx=0;entryDy=0;fontFamily=Helvetica;fontSize=12;fontColor=default;" edge="1" parent="1" source="UrL7DcTW2N4OfELLKphQ-26" target="UrL7DcTW2N4OfELLKphQ-28">
          <mxGeometry relative="1" as="geometry" />
        </mxCell>
        <mxCell id="UrL7DcTW2N4OfELLKphQ-26" value="Euclid" style="rounded=0;whiteSpace=wrap;html=1;strokeColor=default;fontFamily=Helvetica;fontSize=12;fontColor=default;fillColor=default;" vertex="1" parent="1">
          <mxGeometry x="760" y="680" width="80" height="30" as="geometry" />
        </mxCell>
        <mxCell id="UrL7DcTW2N4OfELLKphQ-78" style="edgeStyle=orthogonalEdgeStyle;orthogonalLoop=1;jettySize=auto;html=1;exitX=1;exitY=0.5;exitDx=0;exitDy=0;fontFamily=Helvetica;fontSize=12;fontColor=default;" edge="1" parent="1" source="UrL7DcTW2N4OfELLKphQ-28" target="UrL7DcTW2N4OfELLKphQ-77">
          <mxGeometry relative="1" as="geometry" />
        </mxCell>
        <mxCell id="UrL7DcTW2N4OfELLKphQ-28" value="Mesa" style="rounded=0;whiteSpace=wrap;html=1;strokeColor=default;fontFamily=Helvetica;fontSize=12;fontColor=default;fillColor=default;" vertex="1" parent="1">
          <mxGeometry x="920" y="720" width="80" height="30" as="geometry" />
        </mxCell>
        <mxCell id="UrL7DcTW2N4OfELLKphQ-33" style="edgeStyle=orthogonalEdgeStyle;orthogonalLoop=1;jettySize=auto;html=1;exitX=1;exitY=0.5;exitDx=0;exitDy=0;entryX=0;entryY=0.5;entryDx=0;entryDy=0;fontFamily=Helvetica;fontSize=12;fontColor=default;" edge="1" parent="1" source="UrL7DcTW2N4OfELLKphQ-29" target="UrL7DcTW2N4OfELLKphQ-32">
          <mxGeometry relative="1" as="geometry" />
        </mxCell>
        <mxCell id="UrL7DcTW2N4OfELLKphQ-29" value="ConEuclid" style="rounded=0;whiteSpace=wrap;html=1;strokeColor=default;fontFamily=Helvetica;fontSize=12;fontColor=default;fillColor=default;" vertex="1" parent="1">
          <mxGeometry x="920" y="680" width="80" height="30" as="geometry" />
        </mxCell>
        <mxCell id="UrL7DcTW2N4OfELLKphQ-35" style="edgeStyle=orthogonalEdgeStyle;orthogonalLoop=1;jettySize=auto;html=1;exitX=1;exitY=0.5;exitDx=0;exitDy=0;fontFamily=Helvetica;fontSize=12;fontColor=default;" edge="1" parent="1" source="UrL7DcTW2N4OfELLKphQ-32" target="UrL7DcTW2N4OfELLKphQ-34">
          <mxGeometry relative="1" as="geometry" />
        </mxCell>
        <mxCell id="UrL7DcTW2N4OfELLKphQ-102" style="edgeStyle=orthogonalEdgeStyle;orthogonalLoop=1;jettySize=auto;html=1;exitX=1;exitY=0.5;exitDx=0;exitDy=0;entryX=0;entryY=0.5;entryDx=0;entryDy=0;fontFamily=Helvetica;fontSize=12;fontColor=default;dashed=1;" edge="1" parent="1" source="UrL7DcTW2N4OfELLKphQ-32" target="UrL7DcTW2N4OfELLKphQ-38">
          <mxGeometry relative="1" as="geometry" />
        </mxCell>
        <mxCell id="UrL7DcTW2N4OfELLKphQ-32" value="Turing" style="rounded=0;whiteSpace=wrap;html=1;strokeColor=default;fontFamily=Helvetica;fontSize=12;fontColor=default;fillColor=default;" vertex="1" parent="1">
          <mxGeometry x="1080" y="680" width="80" height="30" as="geometry" />
        </mxCell>
        <mxCell id="UrL7DcTW2N4OfELLKphQ-37" style="edgeStyle=orthogonalEdgeStyle;orthogonalLoop=1;jettySize=auto;html=1;exitX=1;exitY=0.5;exitDx=0;exitDy=0;entryX=0;entryY=0.5;entryDx=0;entryDy=0;fontFamily=Helvetica;fontSize=12;fontColor=default;" edge="1" parent="1" source="UrL7DcTW2N4OfELLKphQ-34" target="UrL7DcTW2N4OfELLKphQ-36">
          <mxGeometry relative="1" as="geometry" />
        </mxCell>
        <mxCell id="UrL7DcTW2N4OfELLKphQ-34" value="Turing+" style="rounded=0;whiteSpace=wrap;html=1;strokeColor=default;fontFamily=Helvetica;fontSize=12;fontColor=default;fillColor=default;" vertex="1" parent="1">
          <mxGeometry x="1240" y="680" width="80" height="30" as="geometry" />
        </mxCell>
        <mxCell id="UrL7DcTW2N4OfELLKphQ-36" value="OOD Turing" style="rounded=0;whiteSpace=wrap;html=1;strokeColor=default;fontFamily=Helvetica;fontSize=12;fontColor=default;fillColor=default;" vertex="1" parent="1">
          <mxGeometry x="1400" y="680" width="80" height="30" as="geometry" />
        </mxCell>
        <mxCell id="UrL7DcTW2N4OfELLKphQ-38" value="TXL" style="rounded=0;whiteSpace=wrap;html=1;strokeColor=default;fontFamily=Helvetica;fontSize=12;fontColor=default;fillColor=default;" vertex="1" parent="1">
          <mxGeometry x="1240" y="600" width="80" height="30" as="geometry" />
        </mxCell>
        <mxCell id="UrL7DcTW2N4OfELLKphQ-53" style="edgeStyle=orthogonalEdgeStyle;orthogonalLoop=1;jettySize=auto;html=1;exitX=1;exitY=0.5;exitDx=0;exitDy=0;entryX=0;entryY=0.5;entryDx=0;entryDy=0;fontFamily=Helvetica;fontSize=12;fontColor=default;" edge="1" parent="1" source="UrL7DcTW2N4OfELLKphQ-40" target="UrL7DcTW2N4OfELLKphQ-41">
          <mxGeometry relative="1" as="geometry" />
        </mxCell>
        <mxCell id="UrL7DcTW2N4OfELLKphQ-54" style="edgeStyle=orthogonalEdgeStyle;orthogonalLoop=1;jettySize=auto;html=1;exitX=1;exitY=0.5;exitDx=0;exitDy=0;entryX=0;entryY=0.5;entryDx=0;entryDy=0;fontFamily=Helvetica;fontSize=12;fontColor=default;" edge="1" parent="1" source="UrL7DcTW2N4OfELLKphQ-40" target="UrL7DcTW2N4OfELLKphQ-42">
          <mxGeometry relative="1" as="geometry" />
        </mxCell>
        <mxCell id="UrL7DcTW2N4OfELLKphQ-55" style="edgeStyle=orthogonalEdgeStyle;orthogonalLoop=1;jettySize=auto;html=1;exitX=1;exitY=0.5;exitDx=0;exitDy=0;entryX=0;entryY=0.5;entryDx=0;entryDy=0;fontFamily=Helvetica;fontSize=12;fontColor=default;" edge="1" parent="1" source="UrL7DcTW2N4OfELLKphQ-40" target="UrL7DcTW2N4OfELLKphQ-43">
          <mxGeometry relative="1" as="geometry" />
        </mxCell>
        <mxCell id="UrL7DcTW2N4OfELLKphQ-56" style="edgeStyle=orthogonalEdgeStyle;orthogonalLoop=1;jettySize=auto;html=1;exitX=1;exitY=0.5;exitDx=0;exitDy=0;entryX=0;entryY=0.5;entryDx=0;entryDy=0;fontFamily=Helvetica;fontSize=12;fontColor=default;" edge="1" parent="1" source="UrL7DcTW2N4OfELLKphQ-40" target="UrL7DcTW2N4OfELLKphQ-44">
          <mxGeometry relative="1" as="geometry" />
        </mxCell>
        <mxCell id="UrL7DcTW2N4OfELLKphQ-57" style="edgeStyle=orthogonalEdgeStyle;orthogonalLoop=1;jettySize=auto;html=1;exitX=1;exitY=0.5;exitDx=0;exitDy=0;entryX=0;entryY=0.5;entryDx=0;entryDy=0;fontFamily=Helvetica;fontSize=12;fontColor=default;" edge="1" parent="1" source="UrL7DcTW2N4OfELLKphQ-40" target="UrL7DcTW2N4OfELLKphQ-45">
          <mxGeometry relative="1" as="geometry" />
        </mxCell>
        <mxCell id="UrL7DcTW2N4OfELLKphQ-58" style="edgeStyle=orthogonalEdgeStyle;orthogonalLoop=1;jettySize=auto;html=1;exitX=1;exitY=0.5;exitDx=0;exitDy=0;entryX=0;entryY=0.5;entryDx=0;entryDy=0;fontFamily=Helvetica;fontSize=12;fontColor=default;" edge="1" parent="1" source="UrL7DcTW2N4OfELLKphQ-40" target="UrL7DcTW2N4OfELLKphQ-46">
          <mxGeometry relative="1" as="geometry" />
        </mxCell>
        <mxCell id="UrL7DcTW2N4OfELLKphQ-59" style="edgeStyle=orthogonalEdgeStyle;orthogonalLoop=1;jettySize=auto;html=1;exitX=1;exitY=0.5;exitDx=0;exitDy=0;entryX=0;entryY=0.5;entryDx=0;entryDy=0;fontFamily=Helvetica;fontSize=12;fontColor=default;" edge="1" parent="1" source="UrL7DcTW2N4OfELLKphQ-40" target="UrL7DcTW2N4OfELLKphQ-47">
          <mxGeometry relative="1" as="geometry" />
        </mxCell>
        <mxCell id="UrL7DcTW2N4OfELLKphQ-60" style="edgeStyle=orthogonalEdgeStyle;orthogonalLoop=1;jettySize=auto;html=1;exitX=1;exitY=0.5;exitDx=0;exitDy=0;entryX=0;entryY=0.5;entryDx=0;entryDy=0;fontFamily=Helvetica;fontSize=12;fontColor=default;" edge="1" parent="1" source="UrL7DcTW2N4OfELLKphQ-40" target="UrL7DcTW2N4OfELLKphQ-48">
          <mxGeometry relative="1" as="geometry" />
        </mxCell>
        <mxCell id="UrL7DcTW2N4OfELLKphQ-61" style="edgeStyle=orthogonalEdgeStyle;orthogonalLoop=1;jettySize=auto;html=1;exitX=1;exitY=0.5;exitDx=0;exitDy=0;entryX=0;entryY=0.5;entryDx=0;entryDy=0;fontFamily=Helvetica;fontSize=12;fontColor=default;" edge="1" parent="1" source="UrL7DcTW2N4OfELLKphQ-40" target="UrL7DcTW2N4OfELLKphQ-49">
          <mxGeometry relative="1" as="geometry" />
        </mxCell>
        <mxCell id="UrL7DcTW2N4OfELLKphQ-62" style="edgeStyle=orthogonalEdgeStyle;orthogonalLoop=1;jettySize=auto;html=1;exitX=1;exitY=0.5;exitDx=0;exitDy=0;entryX=0;entryY=0.5;entryDx=0;entryDy=0;fontFamily=Helvetica;fontSize=12;fontColor=default;" edge="1" parent="1" source="UrL7DcTW2N4OfELLKphQ-40" target="UrL7DcTW2N4OfELLKphQ-50">
          <mxGeometry relative="1" as="geometry" />
        </mxCell>
        <mxCell id="UrL7DcTW2N4OfELLKphQ-63" style="edgeStyle=orthogonalEdgeStyle;orthogonalLoop=1;jettySize=auto;html=1;exitX=1;exitY=0.5;exitDx=0;exitDy=0;entryX=0;entryY=0.5;entryDx=0;entryDy=0;fontFamily=Helvetica;fontSize=12;fontColor=default;" edge="1" parent="1" source="UrL7DcTW2N4OfELLKphQ-40" target="UrL7DcTW2N4OfELLKphQ-51">
          <mxGeometry relative="1" as="geometry" />
        </mxCell>
        <mxCell id="UrL7DcTW2N4OfELLKphQ-40" value="PL/I" style="rounded=0;whiteSpace=wrap;html=1;labelBackgroundColor=none;" vertex="1" parent="1">
          <mxGeometry x="440" y="280" width="80" height="30" as="geometry" />
        </mxCell>
        <mxCell id="UrL7DcTW2N4OfELLKphQ-41" value="PL/C" style="rounded=0;whiteSpace=wrap;html=1;labelBackgroundColor=none;" vertex="1" parent="1">
          <mxGeometry x="600" y="80" width="80" height="30" as="geometry" />
        </mxCell>
        <mxCell id="UrL7DcTW2N4OfELLKphQ-42" value="PL/MP" style="rounded=0;whiteSpace=wrap;html=1;labelBackgroundColor=none;" vertex="1" parent="1">
          <mxGeometry x="600" y="120" width="80" height="30" as="geometry" />
        </mxCell>
        <mxCell id="UrL7DcTW2N4OfELLKphQ-43" value="PL/MI" style="rounded=0;whiteSpace=wrap;html=1;labelBackgroundColor=none;" vertex="1" parent="1">
          <mxGeometry x="600" y="160" width="80" height="30" as="geometry" />
        </mxCell>
        <mxCell id="UrL7DcTW2N4OfELLKphQ-44" value="PL/8" style="rounded=0;whiteSpace=wrap;html=1;labelBackgroundColor=none;" vertex="1" parent="1">
          <mxGeometry x="600" y="200" width="80" height="30" as="geometry" />
        </mxCell>
        <mxCell id="UrL7DcTW2N4OfELLKphQ-45" value="PL-6" style="rounded=0;whiteSpace=wrap;html=1;labelBackgroundColor=none;" vertex="1" parent="1">
          <mxGeometry x="600" y="240" width="80" height="30" as="geometry" />
        </mxCell>
        <mxCell id="UrL7DcTW2N4OfELLKphQ-65" style="edgeStyle=orthogonalEdgeStyle;orthogonalLoop=1;jettySize=auto;html=1;exitX=1;exitY=0.5;exitDx=0;exitDy=0;entryX=0;entryY=0.5;entryDx=0;entryDy=0;fontFamily=Helvetica;fontSize=12;fontColor=default;" edge="1" parent="1" source="UrL7DcTW2N4OfELLKphQ-46" target="UrL7DcTW2N4OfELLKphQ-64">
          <mxGeometry relative="1" as="geometry" />
        </mxCell>
        <mxCell id="UrL7DcTW2N4OfELLKphQ-46" value="PL/P" style="rounded=0;whiteSpace=wrap;html=1;labelBackgroundColor=none;" vertex="1" parent="1">
          <mxGeometry x="600" y="280" width="80" height="30" as="geometry" />
        </mxCell>
        <mxCell id="UrL7DcTW2N4OfELLKphQ-67" style="edgeStyle=orthogonalEdgeStyle;orthogonalLoop=1;jettySize=auto;html=1;exitX=1;exitY=0.5;exitDx=0;exitDy=0;entryX=0;entryY=0.5;entryDx=0;entryDy=0;fontFamily=Helvetica;fontSize=12;fontColor=default;" edge="1" parent="1" source="UrL7DcTW2N4OfELLKphQ-47" target="UrL7DcTW2N4OfELLKphQ-66">
          <mxGeometry relative="1" as="geometry" />
        </mxCell>
        <mxCell id="UrL7DcTW2N4OfELLKphQ-47" value="XPL" style="rounded=0;whiteSpace=wrap;html=1;labelBackgroundColor=none;" vertex="1" parent="1">
          <mxGeometry x="600" y="320" width="80" height="30" as="geometry" />
        </mxCell>
        <mxCell id="UrL7DcTW2N4OfELLKphQ-48" value="SPL/I" style="rounded=0;whiteSpace=wrap;html=1;labelBackgroundColor=none;" vertex="1" parent="1">
          <mxGeometry x="600" y="360" width="80" height="30" as="geometry" />
        </mxCell>
        <mxCell id="UrL7DcTW2N4OfELLKphQ-49" value="SabreTalk" style="rounded=0;whiteSpace=wrap;html=1;labelBackgroundColor=none;" vertex="1" parent="1">
          <mxGeometry x="600" y="400" width="80" height="30" as="geometry" />
        </mxCell>
        <mxCell id="UrL7DcTW2N4OfELLKphQ-72" style="edgeStyle=orthogonalEdgeStyle;orthogonalLoop=1;jettySize=auto;html=1;exitX=1;exitY=0.5;exitDx=0;exitDy=0;fontFamily=Helvetica;fontSize=12;fontColor=default;" edge="1" parent="1" source="UrL7DcTW2N4OfELLKphQ-50" target="UrL7DcTW2N4OfELLKphQ-68">
          <mxGeometry relative="1" as="geometry" />
        </mxCell>
        <mxCell id="UrL7DcTW2N4OfELLKphQ-50" value="PL/S" style="rounded=0;whiteSpace=wrap;html=1;labelBackgroundColor=none;" vertex="1" parent="1">
          <mxGeometry x="600" y="440" width="80" height="30" as="geometry" />
        </mxCell>
        <mxCell id="UrL7DcTW2N4OfELLKphQ-101" style="edgeStyle=orthogonalEdgeStyle;orthogonalLoop=1;jettySize=auto;html=1;exitX=1;exitY=0.5;exitDx=0;exitDy=0;entryX=0;entryY=0.5;entryDx=0;entryDy=0;fontFamily=Helvetica;fontSize=12;fontColor=default;dashed=1;" edge="1" parent="1" source="UrL7DcTW2N4OfELLKphQ-51" target="UrL7DcTW2N4OfELLKphQ-32">
          <mxGeometry relative="1" as="geometry">
            <Array as="points">
              <mxPoint x="1040" y="495" />
              <mxPoint x="1040" y="695" />
            </Array>
          </mxGeometry>
        </mxCell>
        <mxCell id="UrL7DcTW2N4OfELLKphQ-51" value="SP/k" style="rounded=0;whiteSpace=wrap;html=1;labelBackgroundColor=none;" vertex="1" parent="1">
          <mxGeometry x="600" y="480" width="80" height="30" as="geometry" />
        </mxCell>
        <mxCell id="UrL7DcTW2N4OfELLKphQ-64" value="SPL" style="rounded=0;whiteSpace=wrap;html=1;labelBackgroundColor=none;" vertex="1" parent="1">
          <mxGeometry x="760" y="280" width="80" height="30" as="geometry" />
        </mxCell>
        <mxCell id="UrL7DcTW2N4OfELLKphQ-66" value="HAL/S" style="rounded=0;whiteSpace=wrap;html=1;labelBackgroundColor=none;" vertex="1" parent="1">
          <mxGeometry x="760" y="320" width="80" height="30" as="geometry" />
        </mxCell>
        <mxCell id="UrL7DcTW2N4OfELLKphQ-73" style="edgeStyle=orthogonalEdgeStyle;orthogonalLoop=1;jettySize=auto;html=1;exitX=1;exitY=0.5;exitDx=0;exitDy=0;entryX=0;entryY=0.5;entryDx=0;entryDy=0;fontFamily=Helvetica;fontSize=12;fontColor=default;" edge="1" parent="1" source="UrL7DcTW2N4OfELLKphQ-68" target="UrL7DcTW2N4OfELLKphQ-69">
          <mxGeometry relative="1" as="geometry" />
        </mxCell>
        <mxCell id="UrL7DcTW2N4OfELLKphQ-68" value="PL/S II" style="rounded=0;whiteSpace=wrap;html=1;labelBackgroundColor=none;" vertex="1" parent="1">
          <mxGeometry x="760" y="440" width="80" height="30" as="geometry" />
        </mxCell>
        <mxCell id="UrL7DcTW2N4OfELLKphQ-74" style="edgeStyle=orthogonalEdgeStyle;orthogonalLoop=1;jettySize=auto;html=1;exitX=1;exitY=0.5;exitDx=0;exitDy=0;fontFamily=Helvetica;fontSize=12;fontColor=default;" edge="1" parent="1" source="UrL7DcTW2N4OfELLKphQ-69" target="UrL7DcTW2N4OfELLKphQ-70">
          <mxGeometry relative="1" as="geometry" />
        </mxCell>
        <mxCell id="UrL7DcTW2N4OfELLKphQ-69" value="PL/S III" style="rounded=0;whiteSpace=wrap;html=1;labelBackgroundColor=none;" vertex="1" parent="1">
          <mxGeometry x="920" y="440" width="80" height="30" as="geometry" />
        </mxCell>
        <mxCell id="UrL7DcTW2N4OfELLKphQ-75" style="edgeStyle=orthogonalEdgeStyle;orthogonalLoop=1;jettySize=auto;html=1;exitX=1;exitY=0.5;exitDx=0;exitDy=0;fontFamily=Helvetica;fontSize=12;fontColor=default;" edge="1" parent="1" source="UrL7DcTW2N4OfELLKphQ-70" target="UrL7DcTW2N4OfELLKphQ-71">
          <mxGeometry relative="1" as="geometry" />
        </mxCell>
        <mxCell id="UrL7DcTW2N4OfELLKphQ-70" value="PL/AS" style="rounded=0;whiteSpace=wrap;html=1;labelBackgroundColor=none;" vertex="1" parent="1">
          <mxGeometry x="1080" y="440" width="80" height="30" as="geometry" />
        </mxCell>
        <mxCell id="UrL7DcTW2N4OfELLKphQ-71" value="PL/X" style="rounded=0;whiteSpace=wrap;html=1;labelBackgroundColor=none;" vertex="1" parent="1">
          <mxGeometry x="1240" y="440" width="80" height="30" as="geometry" />
        </mxCell>
        <mxCell id="UrL7DcTW2N4OfELLKphQ-97" style="edgeStyle=orthogonalEdgeStyle;orthogonalLoop=1;jettySize=auto;html=1;exitX=1;exitY=0.5;exitDx=0;exitDy=0;entryX=0;entryY=0.5;entryDx=0;entryDy=0;fontFamily=Helvetica;fontSize=12;fontColor=default;dashed=1;endArrow=classic;endFill=1;" edge="1" parent="1" source="UrL7DcTW2N4OfELLKphQ-77" target="UrL7DcTW2N4OfELLKphQ-87">
          <mxGeometry relative="1" as="geometry" />
        </mxCell>
        <mxCell id="UrL7DcTW2N4OfELLKphQ-77" value="Cedar" style="rounded=0;whiteSpace=wrap;html=1;labelBackgroundColor=none;" vertex="1" parent="1">
          <mxGeometry x="1080" y="720" width="80" height="30" as="geometry" />
        </mxCell>
        <mxCell id="UrL7DcTW2N4OfELLKphQ-82" style="edgeStyle=orthogonalEdgeStyle;orthogonalLoop=1;jettySize=auto;html=1;exitX=1;exitY=0.5;exitDx=0;exitDy=0;entryX=0;entryY=0.5;entryDx=0;entryDy=0;fontFamily=Helvetica;fontSize=12;fontColor=default;" edge="1" parent="1" source="UrL7DcTW2N4OfELLKphQ-79" target="UrL7DcTW2N4OfELLKphQ-81">
          <mxGeometry relative="1" as="geometry" />
        </mxCell>
        <mxCell id="UrL7DcTW2N4OfELLKphQ-79" value="Modula" style="rounded=0;whiteSpace=wrap;html=1;" vertex="1" parent="1">
          <mxGeometry x="760" y="880" width="80" height="30" as="geometry" />
        </mxCell>
        <mxCell id="UrL7DcTW2N4OfELLKphQ-90" style="edgeStyle=orthogonalEdgeStyle;orthogonalLoop=1;jettySize=auto;html=1;exitX=1;exitY=0.5;exitDx=0;exitDy=0;entryX=0;entryY=0.5;entryDx=0;entryDy=0;fontFamily=Helvetica;fontSize=12;fontColor=default;" edge="1" parent="1" source="UrL7DcTW2N4OfELLKphQ-81" target="UrL7DcTW2N4OfELLKphQ-86">
          <mxGeometry relative="1" as="geometry" />
        </mxCell>
        <mxCell id="UrL7DcTW2N4OfELLKphQ-92" style="edgeStyle=orthogonalEdgeStyle;orthogonalLoop=1;jettySize=auto;html=1;exitX=1;exitY=0.5;exitDx=0;exitDy=0;entryX=0;entryY=0.5;entryDx=0;entryDy=0;fontFamily=Helvetica;fontSize=12;fontColor=default;" edge="1" parent="1" source="UrL7DcTW2N4OfELLKphQ-81" target="UrL7DcTW2N4OfELLKphQ-83">
          <mxGeometry relative="1" as="geometry" />
        </mxCell>
        <mxCell id="UrL7DcTW2N4OfELLKphQ-93" style="edgeStyle=orthogonalEdgeStyle;orthogonalLoop=1;jettySize=auto;html=1;exitX=1;exitY=0.5;exitDx=0;exitDy=0;entryX=0;entryY=0.5;entryDx=0;entryDy=0;fontFamily=Helvetica;fontSize=12;fontColor=default;" edge="1" parent="1" source="UrL7DcTW2N4OfELLKphQ-81" target="UrL7DcTW2N4OfELLKphQ-84">
          <mxGeometry relative="1" as="geometry" />
        </mxCell>
        <mxCell id="UrL7DcTW2N4OfELLKphQ-94" style="edgeStyle=orthogonalEdgeStyle;orthogonalLoop=1;jettySize=auto;html=1;exitX=1;exitY=0.5;exitDx=0;exitDy=0;entryX=0;entryY=0.5;entryDx=0;entryDy=0;fontFamily=Helvetica;fontSize=12;fontColor=default;" edge="1" parent="1" source="UrL7DcTW2N4OfELLKphQ-81" target="UrL7DcTW2N4OfELLKphQ-85">
          <mxGeometry relative="1" as="geometry" />
        </mxCell>
        <mxCell id="UrL7DcTW2N4OfELLKphQ-95" style="edgeStyle=orthogonalEdgeStyle;orthogonalLoop=1;jettySize=auto;html=1;exitX=1;exitY=0.5;exitDx=0;exitDy=0;entryX=0;entryY=0.5;entryDx=0;entryDy=0;fontFamily=Helvetica;fontSize=12;fontColor=default;" edge="1" parent="1" source="UrL7DcTW2N4OfELLKphQ-81" target="UrL7DcTW2N4OfELLKphQ-88">
          <mxGeometry relative="1" as="geometry" />
        </mxCell>
        <mxCell id="UrL7DcTW2N4OfELLKphQ-96" style="edgeStyle=orthogonalEdgeStyle;orthogonalLoop=1;jettySize=auto;html=1;exitX=1;exitY=0.5;exitDx=0;exitDy=0;entryX=0;entryY=0.5;entryDx=0;entryDy=0;fontFamily=Helvetica;fontSize=12;fontColor=default;" edge="1" parent="1" source="UrL7DcTW2N4OfELLKphQ-81" target="UrL7DcTW2N4OfELLKphQ-89">
          <mxGeometry relative="1" as="geometry" />
        </mxCell>
        <mxCell id="UrL7DcTW2N4OfELLKphQ-81" value="Modula-2" style="rounded=0;whiteSpace=wrap;html=1;" vertex="1" parent="1">
          <mxGeometry x="920" y="880" width="80" height="30" as="geometry" />
        </mxCell>
        <mxCell id="UrL7DcTW2N4OfELLKphQ-83" value="Alma-0" style="rounded=0;whiteSpace=wrap;html=1;" vertex="1" parent="1">
          <mxGeometry x="1080" y="800" width="80" height="30" as="geometry" />
        </mxCell>
        <mxCell id="UrL7DcTW2N4OfELLKphQ-84" value="Parallaxis" style="rounded=0;whiteSpace=wrap;html=1;" vertex="1" parent="1">
          <mxGeometry x="1080" y="840" width="80" height="30" as="geometry" />
        </mxCell>
        <mxCell id="UrL7DcTW2N4OfELLKphQ-85" value="Umbriel" style="rounded=0;whiteSpace=wrap;html=1;" vertex="1" parent="1">
          <mxGeometry x="1080" y="920" width="80" height="30" as="geometry" />
        </mxCell>
        <mxCell id="UrL7DcTW2N4OfELLKphQ-91" style="edgeStyle=orthogonalEdgeStyle;orthogonalLoop=1;jettySize=auto;html=1;exitX=1;exitY=0.5;exitDx=0;exitDy=0;entryX=0;entryY=0.5;entryDx=0;entryDy=0;fontFamily=Helvetica;fontSize=12;fontColor=default;" edge="1" parent="1" source="UrL7DcTW2N4OfELLKphQ-86" target="UrL7DcTW2N4OfELLKphQ-87">
          <mxGeometry relative="1" as="geometry" />
        </mxCell>
        <mxCell id="UrL7DcTW2N4OfELLKphQ-86" value="Modula-2+" style="rounded=0;whiteSpace=wrap;html=1;" vertex="1" parent="1">
          <mxGeometry x="1080" y="880" width="80" height="30" as="geometry" />
        </mxCell>
        <mxCell id="UrL7DcTW2N4OfELLKphQ-87" value="Modula-3" style="rounded=0;whiteSpace=wrap;html=1;" vertex="1" parent="1">
          <mxGeometry x="1240" y="880" width="80" height="30" as="geometry" />
        </mxCell>
        <mxCell id="UrL7DcTW2N4OfELLKphQ-88" value="YAFL" style="rounded=0;whiteSpace=wrap;html=1;" vertex="1" parent="1">
          <mxGeometry x="1080" y="960" width="80" height="30" as="geometry" />
        </mxCell>
        <mxCell id="UrL7DcTW2N4OfELLKphQ-113" style="edgeStyle=orthogonalEdgeStyle;orthogonalLoop=1;jettySize=auto;html=1;exitX=1;exitY=0.5;exitDx=0;exitDy=0;entryX=0;entryY=0.5;entryDx=0;entryDy=0;fontFamily=Helvetica;fontSize=12;fontColor=default;" edge="1" parent="1" source="UrL7DcTW2N4OfELLKphQ-89" target="UrL7DcTW2N4OfELLKphQ-103">
          <mxGeometry relative="1" as="geometry" />
        </mxCell>
        <mxCell id="UrL7DcTW2N4OfELLKphQ-114" style="edgeStyle=orthogonalEdgeStyle;orthogonalLoop=1;jettySize=auto;html=1;exitX=1;exitY=0.5;exitDx=0;exitDy=0;entryX=0;entryY=0.5;entryDx=0;entryDy=0;fontFamily=Helvetica;fontSize=12;fontColor=default;" edge="1" parent="1" source="UrL7DcTW2N4OfELLKphQ-89" target="UrL7DcTW2N4OfELLKphQ-104">
          <mxGeometry relative="1" as="geometry" />
        </mxCell>
        <mxCell id="UrL7DcTW2N4OfELLKphQ-115" style="edgeStyle=orthogonalEdgeStyle;orthogonalLoop=1;jettySize=auto;html=1;exitX=1;exitY=0.5;exitDx=0;exitDy=0;entryX=0;entryY=0.5;entryDx=0;entryDy=0;fontFamily=Helvetica;fontSize=12;fontColor=default;" edge="1" parent="1" source="UrL7DcTW2N4OfELLKphQ-89" target="UrL7DcTW2N4OfELLKphQ-105">
          <mxGeometry relative="1" as="geometry" />
        </mxCell>
        <mxCell id="UrL7DcTW2N4OfELLKphQ-116" style="edgeStyle=orthogonalEdgeStyle;orthogonalLoop=1;jettySize=auto;html=1;exitX=1;exitY=0.5;exitDx=0;exitDy=0;entryX=0;entryY=0.5;entryDx=0;entryDy=0;fontFamily=Helvetica;fontSize=12;fontColor=default;" edge="1" parent="1" source="UrL7DcTW2N4OfELLKphQ-89" target="UrL7DcTW2N4OfELLKphQ-106">
          <mxGeometry relative="1" as="geometry" />
        </mxCell>
        <mxCell id="UrL7DcTW2N4OfELLKphQ-89" value="Oberon" style="rounded=0;whiteSpace=wrap;html=1;" vertex="1" parent="1">
          <mxGeometry x="1080" y="1000" width="80" height="30" as="geometry" />
        </mxCell>
        <mxCell id="UrL7DcTW2N4OfELLKphQ-109" style="edgeStyle=orthogonalEdgeStyle;orthogonalLoop=1;jettySize=auto;html=1;exitX=1;exitY=0.5;exitDx=0;exitDy=0;entryX=0;entryY=0.5;entryDx=0;entryDy=0;fontFamily=Helvetica;fontSize=12;fontColor=default;" edge="1" parent="1" source="UrL7DcTW2N4OfELLKphQ-103" target="UrL7DcTW2N4OfELLKphQ-107">
          <mxGeometry relative="1" as="geometry" />
        </mxCell>
        <mxCell id="UrL7DcTW2N4OfELLKphQ-112" style="edgeStyle=orthogonalEdgeStyle;orthogonalLoop=1;jettySize=auto;html=1;exitX=1;exitY=0.5;exitDx=0;exitDy=0;entryX=0;entryY=0.5;entryDx=0;entryDy=0;fontFamily=Helvetica;fontSize=12;fontColor=default;" edge="1" parent="1" source="UrL7DcTW2N4OfELLKphQ-103" target="UrL7DcTW2N4OfELLKphQ-111">
          <mxGeometry relative="1" as="geometry" />
        </mxCell>
        <mxCell id="UrL7DcTW2N4OfELLKphQ-103" value="Oberon-2" style="rounded=0;whiteSpace=wrap;html=1;" vertex="1" parent="1">
          <mxGeometry x="1240" y="920" width="80" height="30" as="geometry" />
        </mxCell>
        <mxCell id="UrL7DcTW2N4OfELLKphQ-104" value="Oberon-07" style="rounded=0;whiteSpace=wrap;html=1;" vertex="1" parent="1">
          <mxGeometry x="1240" y="960" width="80" height="30" as="geometry" />
        </mxCell>
        <mxCell id="UrL7DcTW2N4OfELLKphQ-105" value="Object Oberon" style="rounded=0;whiteSpace=wrap;html=1;" vertex="1" parent="1">
          <mxGeometry x="1240" y="1000" width="80" height="30" as="geometry" />
        </mxCell>
        <mxCell id="UrL7DcTW2N4OfELLKphQ-106" value="Oberon-V" style="rounded=0;whiteSpace=wrap;html=1;" vertex="1" parent="1">
          <mxGeometry x="1240" y="1040" width="80" height="30" as="geometry" />
        </mxCell>
        <mxCell id="UrL7DcTW2N4OfELLKphQ-110" style="edgeStyle=orthogonalEdgeStyle;orthogonalLoop=1;jettySize=auto;html=1;exitX=1;exitY=0.5;exitDx=0;exitDy=0;entryX=0;entryY=0.5;entryDx=0;entryDy=0;fontFamily=Helvetica;fontSize=12;fontColor=default;" edge="1" parent="1" source="UrL7DcTW2N4OfELLKphQ-107" target="UrL7DcTW2N4OfELLKphQ-108">
          <mxGeometry relative="1" as="geometry" />
        </mxCell>
        <mxCell id="UrL7DcTW2N4OfELLKphQ-107" value="Active Oberon" style="rounded=0;whiteSpace=wrap;html=1;" vertex="1" parent="1">
          <mxGeometry x="1400" y="960" width="80" height="30" as="geometry" />
        </mxCell>
        <mxCell id="UrL7DcTW2N4OfELLKphQ-108" value="Zonnon" style="rounded=0;whiteSpace=wrap;html=1;" vertex="1" parent="1">
          <mxGeometry x="1560" y="960" width="80" height="30" as="geometry" />
        </mxCell>
        <mxCell id="UrL7DcTW2N4OfELLKphQ-111" value="Component Pascal" style="rounded=0;whiteSpace=wrap;html=1;" vertex="1" parent="1">
          <mxGeometry x="1400" y="920" width="80" height="30" as="geometry" />
        </mxCell>
        <mxCell id="UrL7DcTW2N4OfELLKphQ-121" style="edgeStyle=orthogonalEdgeStyle;orthogonalLoop=1;jettySize=auto;html=1;exitX=1;exitY=0.5;exitDx=0;exitDy=0;entryX=0;entryY=0.5;entryDx=0;entryDy=0;fontFamily=Helvetica;fontSize=12;fontColor=default;" edge="1" parent="1" source="UrL7DcTW2N4OfELLKphQ-118" target="UrL7DcTW2N4OfELLKphQ-120">
          <mxGeometry relative="1" as="geometry" />
        </mxCell>
        <mxCell id="UrL7DcTW2N4OfELLKphQ-118" value="UCSD Pascal" style="rounded=0;whiteSpace=wrap;html=1;" vertex="1" parent="1">
          <mxGeometry x="760" y="1120" width="80" height="30" as="geometry" />
        </mxCell>
        <mxCell id="UrL7DcTW2N4OfELLKphQ-123" style="edgeStyle=orthogonalEdgeStyle;orthogonalLoop=1;jettySize=auto;html=1;exitX=1;exitY=0.5;exitDx=0;exitDy=0;entryX=0;entryY=0.5;entryDx=0;entryDy=0;fontFamily=Helvetica;fontSize=12;fontColor=default;" edge="1" parent="1" source="UrL7DcTW2N4OfELLKphQ-120" target="UrL7DcTW2N4OfELLKphQ-122">
          <mxGeometry relative="1" as="geometry" />
        </mxCell>
        <mxCell id="UrL7DcTW2N4OfELLKphQ-120" value="Apple Pascal" style="rounded=0;whiteSpace=wrap;html=1;" vertex="1" parent="1">
          <mxGeometry x="920" y="1120" width="80" height="30" as="geometry" />
        </mxCell>
        <mxCell id="UrL7DcTW2N4OfELLKphQ-125" style="edgeStyle=orthogonalEdgeStyle;orthogonalLoop=1;jettySize=auto;html=1;exitX=1;exitY=0.5;exitDx=0;exitDy=0;entryX=0;entryY=0.5;entryDx=0;entryDy=0;fontFamily=Helvetica;fontSize=12;fontColor=default;" edge="1" parent="1" source="UrL7DcTW2N4OfELLKphQ-122" target="UrL7DcTW2N4OfELLKphQ-124">
          <mxGeometry relative="1" as="geometry" />
        </mxCell>
        <mxCell id="UrL7DcTW2N4OfELLKphQ-122" value="Lisa Pascal" style="rounded=0;whiteSpace=wrap;html=1;" vertex="1" parent="1">
          <mxGeometry x="1080" y="1120" width="80" height="30" as="geometry" />
        </mxCell>
        <mxCell id="UrL7DcTW2N4OfELLKphQ-127" style="edgeStyle=orthogonalEdgeStyle;orthogonalLoop=1;jettySize=auto;html=1;exitX=1;exitY=0.5;exitDx=0;exitDy=0;entryX=0;entryY=0.5;entryDx=0;entryDy=0;fontFamily=Helvetica;fontSize=12;fontColor=default;" edge="1" parent="1" source="UrL7DcTW2N4OfELLKphQ-124" target="UrL7DcTW2N4OfELLKphQ-126">
          <mxGeometry relative="1" as="geometry" />
        </mxCell>
        <mxCell id="UrL7DcTW2N4OfELLKphQ-124" value="Clascal" style="rounded=0;whiteSpace=wrap;html=1;" vertex="1" parent="1">
          <mxGeometry x="1240" y="1120" width="80" height="30" as="geometry" />
        </mxCell>
        <mxCell id="UrL7DcTW2N4OfELLKphQ-129" style="edgeStyle=orthogonalEdgeStyle;orthogonalLoop=1;jettySize=auto;html=1;exitX=1;exitY=0.5;exitDx=0;exitDy=0;entryX=0;entryY=0.5;entryDx=0;entryDy=0;fontFamily=Helvetica;fontSize=12;fontColor=default;" edge="1" parent="1" source="UrL7DcTW2N4OfELLKphQ-126" target="UrL7DcTW2N4OfELLKphQ-128">
          <mxGeometry relative="1" as="geometry" />
        </mxCell>
        <mxCell id="UrL7DcTW2N4OfELLKphQ-131" style="edgeStyle=orthogonalEdgeStyle;orthogonalLoop=1;jettySize=auto;html=1;exitX=1;exitY=0.5;exitDx=0;exitDy=0;entryX=0;entryY=0.5;entryDx=0;entryDy=0;fontFamily=Helvetica;fontSize=12;fontColor=default;" edge="1" parent="1" source="UrL7DcTW2N4OfELLKphQ-126" target="UrL7DcTW2N4OfELLKphQ-130">
          <mxGeometry relative="1" as="geometry" />
        </mxCell>
        <mxCell id="UrL7DcTW2N4OfELLKphQ-133" style="edgeStyle=orthogonalEdgeStyle;orthogonalLoop=1;jettySize=auto;html=1;exitX=1;exitY=0.5;exitDx=0;exitDy=0;entryX=0;entryY=0.5;entryDx=0;entryDy=0;fontFamily=Helvetica;fontSize=12;fontColor=default;" edge="1" parent="1" source="UrL7DcTW2N4OfELLKphQ-126" target="UrL7DcTW2N4OfELLKphQ-132">
          <mxGeometry relative="1" as="geometry" />
        </mxCell>
        <mxCell id="UrL7DcTW2N4OfELLKphQ-126" value="Object Pascal" style="rounded=0;whiteSpace=wrap;html=1;" vertex="1" parent="1">
          <mxGeometry x="1400" y="1120" width="80" height="30" as="geometry" />
        </mxCell>
        <mxCell id="UrL7DcTW2N4OfELLKphQ-135" style="edgeStyle=orthogonalEdgeStyle;orthogonalLoop=1;jettySize=auto;html=1;exitX=1;exitY=0.5;exitDx=0;exitDy=0;fontFamily=Helvetica;fontSize=12;fontColor=default;" edge="1" parent="1" source="UrL7DcTW2N4OfELLKphQ-128" target="UrL7DcTW2N4OfELLKphQ-134">
          <mxGeometry relative="1" as="geometry" />
        </mxCell>
        <mxCell id="UrL7DcTW2N4OfELLKphQ-128" value="Delphi" style="rounded=0;whiteSpace=wrap;html=1;" vertex="1" parent="1">
          <mxGeometry x="1560" y="1080" width="80" height="30" as="geometry" />
        </mxCell>
        <mxCell id="UrL7DcTW2N4OfELLKphQ-130" value="Free Pascal" style="rounded=0;whiteSpace=wrap;html=1;" vertex="1" parent="1">
          <mxGeometry x="1560" y="1120" width="80" height="30" as="geometry" />
        </mxCell>
        <mxCell id="UrL7DcTW2N4OfELLKphQ-132" value="GNU Pascal" style="rounded=0;whiteSpace=wrap;html=1;" vertex="1" parent="1">
          <mxGeometry x="1560" y="1160" width="80" height="30" as="geometry" />
        </mxCell>
        <mxCell id="UrL7DcTW2N4OfELLKphQ-134" value="Oxygene" style="rounded=0;whiteSpace=wrap;html=1;" vertex="1" parent="1">
          <mxGeometry x="1720" y="1080" width="80" height="30" as="geometry" />
        </mxCell>
        <mxCell id="UrL7DcTW2N4OfELLKphQ-137" style="edgeStyle=orthogonalEdgeStyle;orthogonalLoop=1;jettySize=auto;html=1;exitX=1;exitY=0.5;exitDx=0;exitDy=0;entryX=0;entryY=0.5;entryDx=0;entryDy=0;fontFamily=Helvetica;fontSize=12;fontColor=default;dashed=1;" edge="1" parent="1" source="UrL7DcTW2N4OfELLKphQ-136" target="UrL7DcTW2N4OfELLKphQ-134">
          <mxGeometry relative="1" as="geometry">
            <Array as="points">
              <mxPoint x="1680" y="1215" />
              <mxPoint x="1680" y="1095" />
            </Array>
          </mxGeometry>
        </mxCell>
        <mxCell id="UrL7DcTW2N4OfELLKphQ-136" value="Eiffel" style="rounded=0;whiteSpace=wrap;html=1;" vertex="1" parent="1">
          <mxGeometry x="1400" y="1200" width="80" height="30" as="geometry" />
        </mxCell>
        <mxCell id="UrL7DcTW2N4OfELLKphQ-142" style="edgeStyle=orthogonalEdgeStyle;orthogonalLoop=1;jettySize=auto;html=1;exitX=1;exitY=0.5;exitDx=0;exitDy=0;entryX=0;entryY=0.5;entryDx=0;entryDy=0;fontFamily=Helvetica;fontSize=12;fontColor=default;" edge="1" parent="1" source="UrL7DcTW2N4OfELLKphQ-138" target="UrL7DcTW2N4OfELLKphQ-140">
          <mxGeometry relative="1" as="geometry" />
        </mxCell>
        <mxCell id="UrL7DcTW2N4OfELLKphQ-138" value="Concurrent Pascal" style="rounded=0;whiteSpace=wrap;html=1;" vertex="1" parent="1">
          <mxGeometry x="760" y="1200" width="80" height="30" as="geometry" />
        </mxCell>
        <mxCell id="UrL7DcTW2N4OfELLKphQ-143" style="edgeStyle=orthogonalEdgeStyle;orthogonalLoop=1;jettySize=auto;html=1;exitX=1;exitY=0.5;exitDx=0;exitDy=0;entryX=0;entryY=0.5;entryDx=0;entryDy=0;fontFamily=Helvetica;fontSize=12;fontColor=default;" edge="1" parent="1" source="UrL7DcTW2N4OfELLKphQ-140" target="UrL7DcTW2N4OfELLKphQ-141">
          <mxGeometry relative="1" as="geometry" />
        </mxCell>
        <mxCell id="UrL7DcTW2N4OfELLKphQ-140" value="Joyce" style="rounded=0;whiteSpace=wrap;html=1;" vertex="1" parent="1">
          <mxGeometry x="920" y="1200" width="80" height="30" as="geometry" />
        </mxCell>
        <mxCell id="UrL7DcTW2N4OfELLKphQ-141" value="SuperPascal" style="rounded=0;whiteSpace=wrap;html=1;" vertex="1" parent="1">
          <mxGeometry x="1080" y="1200" width="80" height="30" as="geometry" />
        </mxCell>
        <mxCell id="UrL7DcTW2N4OfELLKphQ-144" value="ALGOL 68" style="rounded=0;whiteSpace=wrap;html=1;" vertex="1" parent="1">
          <mxGeometry x="440" y="960" width="80" height="30" as="geometry" />
        </mxCell>
        <mxCell id="UrL7DcTW2N4OfELLKphQ-147" style="edgeStyle=orthogonalEdgeStyle;orthogonalLoop=1;jettySize=auto;html=1;exitX=1;exitY=0.5;exitDx=0;exitDy=0;entryX=0;entryY=0.5;entryDx=0;entryDy=0;fontFamily=Helvetica;fontSize=12;fontColor=default;" edge="1" parent="1" source="UrL7DcTW2N4OfELLKphQ-145" target="UrL7DcTW2N4OfELLKphQ-146">
          <mxGeometry relative="1" as="geometry" />
        </mxCell>
        <mxCell id="UrL7DcTW2N4OfELLKphQ-145" value="Simula I" style="rounded=0;whiteSpace=wrap;html=1;" vertex="1" parent="1">
          <mxGeometry x="440" y="1280" width="80" height="30" as="geometry" />
        </mxCell>
        <mxCell id="UrL7DcTW2N4OfELLKphQ-146" value="Simula 67" style="rounded=0;whiteSpace=wrap;html=1;" vertex="1" parent="1">
          <mxGeometry x="600" y="1280" width="80" height="30" as="geometry" />
        </mxCell>
        <mxCell id="UrL7DcTW2N4OfELLKphQ-149" value="SMALGOL" style="rounded=0;whiteSpace=wrap;html=1;" vertex="1" parent="1">
          <mxGeometry x="440" y="1000" width="80" height="30" as="geometry" />
        </mxCell>
      </root>
    </mxGraphModel>
  </diagram>
</mxfile>
